<svg xmlns="http://www.w3.org/2000/svg" viewBox="0 0 1000 1000">
        <g transform="scale(1, -1) translate(0, -1000) rotate(0, 500, 500)">
            <path d="M1066 6Q1060 2 1051 -4Q1033 -5 926 -5Q813 -5 801 -5Q777 -3 736 46Q723 61 696 96Q690 110 683 124Q671 142 654 142Q643 142 588 113Q539 86 507 66Q431 16 377 3Q344 -5 270 -5Q172 -5 106 14Q73 23 33 59Q-11 99 -11 131Q-11 152 189 396Q221 432 274 494Q278 498 392 625Q400 634 400 650Q400 715 276 853Q268 862 254.0 868.5Q240 875 193 879Q153 883 133 900V916Q147 925 166 926L253 932Q258 932 287 932Q316 933 321 933Q325 933 352.0 932.0Q379 931 384 931Q518 931 660 660Q686 616 737 523Q781 429 869 242Q898 179 938 127Q987 62 1026 51Q1035 48 1066 26ZM620 240Q620 246 582.0 328.5Q544 411 517 462Q481 532 459 535Q422 508 385 465Q353 427 321 389Q297 361 292 351Q269 321 246 291Q202 228 202 200Q202 163 253 132Q298 106 333 106Q343 106 390 115Q443 126 471 136Q493 144 550 176Q560 183 576 195Q620 225 620 240Z" fill="white"/>
        </g>
    </svg>